<?xml version="1.0" encoding="UTF-8"?>
<svg version="1.1" xmlns="http://www.w3.org/2000/svg" width="500" height="500">
<path d="M0 0 C165 0 330 0 500 0 C500 165 500 330 500 500 C335 500 170 500 0 500 C0 335 0 170 0 0 Z " fill="#FEFEFE" transform="translate(0,0)"/>
<path d="M0 0 C10.62879379 7.82976317 18.94745607 20.57692548 21.59765625 33.55078125 C23.8543172 52.89671933 21.46785914 70.27492104 9.35546875 86.15625 C6.74094774 89.28043714 3.88902342 92.12953562 1 95 C2.03447266 96.21623047 2.03447266 96.21623047 3.08984375 97.45703125 C7.73486133 102.92620505 12.36632774 108.40638157 16.9375 113.9375 C17.62714844 114.77152344 18.31679687 115.60554688 19.02734375 116.46484375 C21.17127326 119.22011157 23.07661363 122.08777235 25 125 C-4.69723262 128.0887723 -4.69723262 128.0887723 -11.59765625 123.13525391 C-14.24290183 119.89883602 -16.1094748 116.4751469 -18.05688477 112.79150391 C-20.8195745 107.79161583 -20.8195745 107.79161583 -25.65966797 105.16455078 C-31.9051885 104.57458961 -38.07791895 105.26531046 -44.30273438 105.85693359 C-50.01855029 106.16010775 -54.83377025 104.35833598 -60 102 C-60.93457031 101.5875 -61.86914062 101.175 -62.83203125 100.75 C-76.26806454 94.13533746 -85.94379642 83.34910417 -91.3125 69.4375 C-96.69863806 53.02480463 -97.07426419 36.53944637 -89.421875 20.7421875 C-80.55275565 4.80174326 -67.74004332 -5.0456184 -50.25390625 -10.078125 C-32.85991861 -14.31348286 -14.77377679 -9.48774656 0 0 Z " fill="#EB5B0E" transform="translate(109,202)"/>
<path d="M0 0 C9.24 0 18.48 0 28 0 C28.495 19.8 28.495 19.8 29 40 C31.31 38.02 33.62 36.04 36 34 C38.328125 32.57421875 38.328125 32.57421875 40.25 31.6875 C40.89453125 31.38199219 41.5390625 31.07648438 42.203125 30.76171875 C50.32454373 27.31894342 61.78796803 27.93788638 70 31 C83.2226433 37.59026648 89.7644573 46.75519637 94.8828125 60.34375 C98.86758776 74.93588474 95.74744042 91.10262412 88.78515625 104.171875 C82.66551915 113.86687995 74.65189537 118.44936821 64 122 C51.87616091 122.98234183 41.99295878 122.56746294 32.16015625 114.48828125 C30.75 113.125 30.75 113.125 29 111 C28.67 114.3 28.34 117.6 28 121 C18.76 121 9.52 121 0 121 C0 81.07 0 41.14 0 0 Z " fill="#EB5B0E" transform="translate(391,186)"/>
<path d="M0 0 C9.24 0 18.48 0 28 0 C28.495 19.8 28.495 19.8 29 40 C31.97 37.69 34.94 35.38 38 33 C46.48162301 28.26689849 56.43939638 27.3892587 65.83203125 29.6953125 C76.94603964 33.75849836 83.47114005 40.73411702 88.56445312 51.22119141 C90.9047575 57.58870044 90.36949907 64.31291662 90.29296875 71 C90.2873643 72.44587766 90.28309822 73.89176106 90.28010559 75.33764648 C90.26872344 79.1188771 90.23931474 82.89975474 90.20599365 86.68084717 C90.17514857 90.54890165 90.1615696 94.41701389 90.14648438 98.28515625 C90.11443743 105.85694937 90.06172516 113.42837999 90 121 C81.09 121 72.18 121 63 121 C62.97421875 117.1225 62.9484375 113.245 62.921875 109.25 C62.88342464 105.48023323 62.83827375 101.71060185 62.79248047 97.94091797 C62.76431526 95.32802837 62.74307871 92.71505427 62.72900391 90.10205078 C62.70751387 86.33842854 62.66082857 82.57581752 62.609375 78.8125 C62.60814636 77.65073242 62.60691772 76.48896484 62.60565186 75.29199219 C62.48239129 68.4125668 61.68788943 63.85652689 58 58 C53.13010331 53.42524857 47.64164295 53.54315791 41.24609375 53.5859375 C37.13729636 54.11004403 35.1751686 55.35242975 32.26953125 58.19921875 C29.46337764 62.17963972 28.74623498 65.90298389 28.68115234 70.70825195 C28.66128265 71.82903641 28.64141296 72.94982086 28.62094116 74.10456848 C28.60938995 75.3036937 28.59783875 76.50281891 28.5859375 77.73828125 C28.56657135 78.97418503 28.5472052 80.21008881 28.5272522 81.48344421 C28.47767445 84.75651967 28.43637171 88.029561 28.39910889 91.30279541 C28.35897981 94.64793457 28.30776548 97.99288373 28.2578125 101.33789062 C28.16020447 107.89186315 28.08057687 114.44570739 28 121 C18.76 121 9.52 121 0 121 C0 81.07 0 41.14 0 0 Z " fill="#EB5B0E" transform="translate(155,186)"/>
<path d="M0 0 C9.24 0 18.48 0 28 0 C28.03738281 3.88910156 28.07476562 7.77820313 28.11328125 11.78515625 C28.15952313 15.56149851 28.21074731 19.33774271 28.26245117 23.11401367 C28.29565743 25.73374447 28.32370266 28.35354606 28.34643555 30.97338867 C28.38005954 34.74428411 28.43238196 38.51453322 28.48828125 42.28515625 C28.49467117 43.45208511 28.5010611 44.61901398 28.50764465 45.82130432 C28.63010658 52.63054272 28.87210186 58.36707664 33.5 63.7421875 C39.01122734 67.90431232 43.26059927 68.63470384 50 68 C54.71542836 66.30956342 57.27288958 64.18806242 60 60 C62.67858396 54.08393871 62.35009526 47.9711272 62.4140625 41.6015625 C62.43342865 40.41146576 62.4527948 39.22136902 62.4727478 37.99520874 C62.53238503 34.20521139 62.57886616 30.41518341 62.625 26.625 C62.66319431 24.05076822 62.70224689 21.47654903 62.7421875 18.90234375 C62.83968405 12.60162906 62.91938059 6.3010436 63 0 C72.24 0 81.48 0 91 0 C91 30.03 91 60.06 91 91 C81.76 91 72.52 91 63 91 C62.67 87.37 62.34 83.74 62 80 C61.34 80.721875 60.68 81.44375 60 82.1875 C53.72802042 88.44171193 46.22243876 92.17677221 37.29150391 92.38110352 C25.25766335 92.34512576 17.91511542 89.78417958 9.12890625 81.35546875 C6.17989109 78.09261345 4.52534906 75.08252925 3 71 C2.73648239 70.31334259 2.47296478 69.62668518 2.20146179 68.91921997 C-0.34509531 61.4893108 -0.38707899 54.47581068 -0.29296875 46.6796875 C-0.28735977 45.32634964 -0.28309584 43.9730056 -0.28010559 42.61965942 C-0.26875896 39.09161982 -0.23938253 35.56396241 -0.20599365 32.03607178 C-0.17507038 28.42253886 -0.16138767 24.80894115 -0.14648438 21.1953125 C-0.11609974 14.12987298 -0.05735655 7.06547712 0 0 Z " fill="#EB5B0E" transform="translate(272,216)"/>
<path d="M0 0 C0.76892578 -0.01611328 1.53785156 -0.03222656 2.33007812 -0.04882812 C10.28428521 -0.05554054 16.69431466 2.10043263 22.5859375 7.5078125 C30.83766258 16.80609783 31.77777755 27.41712422 31.1875 39.3125 C30.4352915 46.77392298 26.6150963 53.93447637 21.296875 59.17578125 C13.51479685 65.349359 6.05140278 67.26440111 -3.8125 66.3125 C-12.41182324 65.09893845 -18.2605463 60.89623271 -23.8125 54.3125 C-30.14493349 45.0059573 -30.34454834 33.16105852 -28.8125 22.3125 C-26.37300459 13.69172676 -21.19477774 7.31961012 -13.8125 2.3125 C-9.30333847 -0.10029696 -4.99306394 -0.02061546 0 0 Z " fill="#FEFDFC" transform="translate(71.8125,216.6875)"/>
<path d="M0 0 C5.72149658 2.60561514 9.49381065 6.17080732 11.859375 12.10546875 C13.59642761 18.38793658 13.98183218 26.08175674 11.55859375 32.25 C7.89760574 38.43580732 4.79492864 42.23251593 -2.25390625 44.3125 C-9.13319186 45.20979812 -13.6805745 44.46517856 -19.25390625 40.3125 C-24.93414378 34.6624765 -26.66824032 29.99983311 -26.69140625 22.0625 C-26.69353944 15.33085279 -26.20278046 10.30193875 -21.25390625 5.3125 C-14.95538184 -0.52515677 -8.40837145 -2.56477188 0 0 Z " fill="#FEFCFB" transform="translate(445.25390625,239.6875)"/>
</svg>
