<?xml version="1.0" encoding="UTF-8"?>
<svg version="1.1" xmlns="http://www.w3.org/2000/svg" width="500" height="500">
<path d="M0 0 C165 0 330 0 500 0 C500 165 500 330 500 500 C335 500 170 500 0 500 C0 335 0 170 0 0 Z " fill="#FEFEFE" transform="translate(0,0)"/>
<path d="M0 0 C7.60395414 4.33789405 11.82721445 9.46347525 14.8046875 17.6953125 C16.71911625 25.24547531 16.32377995 32.42290858 12.7890625 39.390625 C10.69554873 42.71487111 8.22295194 45.61470649 5.5 48.4375 C7.12135878 52.18800576 9.50586728 55.01114221 12.125 58.125 C16.5 63.33497634 16.5 63.33497634 16.5 64.4375 C1.26030413 65.65939098 1.26030413 65.65939098 -2.96484375 62.7265625 C-4.95117235 60.03603427 -6.5 57.84394678 -6.5 54.4375 C-7.39460938 54.48390625 -8.28921875 54.5303125 -9.2109375 54.578125 C-19.08764821 54.87295219 -26.85969156 54.08209858 -34.375 47.25 C-37.8604634 43.45216017 -39.69198961 39.21025861 -41.5 34.4375 C-41.83 33.7775 -42.16 33.1175 -42.5 32.4375 C-43.38463642 22.48534029 -41.66070585 14.18367569 -35.3828125 6.296875 C-25.79234724 -3.17420687 -12.2603153 -5.76956014 0 0 Z " fill="#EB5D11" transform="translate(49.5,222.5625)"/>
<path d="M0 0 C4.95 0 9.9 0 15 0 C15.83822963 4.00145704 16.67508081 8.00316623 17.50854492 12.00561523 C17.79193572 13.36450395 18.07610101 14.72323141 18.36108398 16.08178711 C18.77275488 18.04497424 19.18132453 20.00881087 19.58984375 21.97265625 C19.83597412 23.15093994 20.08210449 24.32922363 20.33569336 25.54321289 C21.0035754 29.01860494 21.52810486 32.49309459 22 36 C23.41361308 33.33713013 24.42589488 30.82592265 25.18359375 27.91015625 C25.38766846 27.1313208 25.59174316 26.35248535 25.80200195 25.55004883 C26.01171631 24.72915771 26.22143066 23.9082666 26.4375 23.0625 C26.65559326 22.22162842 26.87368652 21.38075684 27.09838867 20.5144043 C28.85243825 13.70147051 30.46525774 6.8659522 32 0 C37.28 0 42.56 0 48 0 C48.93903416 3.72878613 49.876255 7.45801342 50.8125 11.1875 C51.07353516 12.22326172 51.33457031 13.25902344 51.60351562 14.32617188 C53.49378584 21.86391607 55.27699299 29.42232495 57 37 C57.20681396 35.98574951 57.41362793 34.97149902 57.62670898 33.92651367 C58.39453938 30.16343593 59.16479796 26.40085866 59.93579102 22.63842773 C60.26913644 21.00998261 60.60182329 19.38140253 60.93383789 17.75268555 C61.41119054 15.41158831 61.89090979 13.07098668 62.37109375 10.73046875 C62.51904892 10.00224411 62.66700409 9.27401947 62.81944275 8.52372742 C63.41838131 5.61399747 64.05946769 2.82159694 65 0 C69.95 0 74.9 0 80 0 C76.67761287 15.08790485 73.08740402 30.10018962 69 45 C68.69835937 46.10988281 68.39671875 47.21976562 68.0859375 48.36328125 C67.39353316 50.90964673 66.69727049 53.45496271 66 56 C60.39 56 54.78 56 49 56 C46.43730319 48.74287359 44.56308907 41.42829224 42.8125 33.9375 C42.53986328 32.78572266 42.26722656 31.63394531 41.98632812 30.44726562 C41.32056001 27.63235131 40.65854087 24.81661221 40 22 C36.81098951 33.29223385 33.79719754 44.60401001 31 56 C25.39 56 19.78 56 14 56 C11.74673808 49.51045692 9.9138768 43.02275959 8.30078125 36.34765625 C8.0608696 35.3663121 7.82095795 34.38496796 7.57377625 33.37388611 C7.07203377 31.31797594 6.57212343 29.26161785 6.07397461 27.20483398 C5.30855114 24.04620448 4.53654453 20.88923602 3.76367188 17.73242188 C3.27565531 15.72926075 2.7880116 13.72600875 2.30078125 11.72265625 C2.06958084 10.77689224 1.83838043 9.83112823 1.60017395 8.85670471 C1.38962875 7.98497116 1.17908356 7.11323761 0.9621582 6.21508789 C0.775793 5.44725479 0.5894278 4.67942169 0.39741516 3.88832092 C0 2 0 2 0 0 Z " fill="#EB5D11" transform="translate(74,221)"/>
<path d="M0 0 C4.62 0 9.24 0 14 0 C14.33 6.27 14.66 12.54 15 19 C16.32 17.68 17.64 16.36 19 15 C24.36366653 12.97516203 30.89173189 13.3107585 36.25 15.0625 C40.8552646 18.30711824 44.99170708 22.65976655 47 28 C47.95517096 36.83533139 48.38723171 45.55031183 42.96875 53.0390625 C38.54531257 57.44494661 33.13382799 60.1321789 26.875 60.625 C22.02165732 59.84220279 18.89445537 57.90012634 15 55 C14.67 56.32 14.34 57.64 14 59 C9.38 59 4.76 59 0 59 C0 39.53 0 20.06 0 0 Z " fill="#EB5D10" transform="translate(440,218)"/>
<path d="M0 0 C4.62 0 9.24 0 14 0 C14.01458252 1.05912598 14.02916504 2.11825195 14.04418945 3.20947266 C14.10237327 7.15707342 14.17960407 11.10411571 14.26245117 15.05126953 C14.29560636 16.75625512 14.32366737 18.46134798 14.34643555 20.16650391 C14.38015568 22.62448634 14.43247794 25.08149406 14.48828125 27.5390625 C14.49467117 28.29555084 14.5010611 29.05203918 14.50764465 29.83145142 C14.63788056 34.57063371 15.41176935 37.8834241 18 42 C21.57671447 43.78835724 25.54070464 43.43384457 29.3125 42.3125 C31.6970098 40.45788127 32.09440561 38.89333806 33 36 C33.23190584 33.18356928 33.37131943 30.45505951 33.4140625 27.63671875 C33.43342865 26.84473587 33.4527948 26.05275299 33.4727478 25.23677063 C33.53227232 22.72045481 33.57881958 20.20409256 33.625 17.6875 C33.66320481 15.9758921 33.70225799 14.26430291 33.7421875 12.55273438 C33.8379513 8.36864251 33.9220818 4.18446069 34 0 C38.62 0 43.24 0 48 0 C48.09955505 5.24693388 48.1717896 10.49330697 48.21972656 15.7409668 C48.23972905 17.52263986 48.26694023 19.30424823 48.30175781 21.08569336 C48.66129468 39.96666596 48.66129468 39.96666596 44 47 C43.443125 47.928125 42.88625 48.85625 42.3125 49.8125 C36.09418326 55.69469151 29.14652237 56.61409852 20.82226562 56.54492188 C13.43723137 56.21592035 9.72728764 53.72728764 4.6875 48.6875 C0.590553 42.16273255 -0.44058405 36.43688634 -0.29296875 28.90625 C-0.28872391 28.07411987 -0.28447906 27.24198975 -0.28010559 26.38464355 C-0.26346307 23.75608407 -0.22583976 21.12832333 -0.1875 18.5 C-0.17243444 16.70574033 -0.15874933 14.9114685 -0.14648438 13.1171875 C-0.11360714 8.74448917 -0.06192722 4.37237947 0 0 Z " fill="#EB5E12" transform="translate(263,221)"/>
<path d="M0 0 C4.62 0 9.24 0 14 0 C14.33 5.94 14.66 11.88 15 18 C17.31 16.68 19.62 15.36 22 14 C27.82211244 12.80572053 33.17342487 13.80107235 38.30859375 16.7265625 C42.14004562 19.61121218 44.16336562 23.36925619 45 28 C45.08220526 30.38943295 45.10745472 32.78104847 45.09765625 35.171875 C45.0962413 35.8542926 45.09482635 36.53671021 45.09336853 37.23980713 C45.08779084 39.40991684 45.07524254 41.5799217 45.0625 43.75 C45.05748211 45.22525892 45.05291971 46.70051947 45.04882812 48.17578125 C45.03868148 51.78392663 45.01910199 55.39184655 45 59 C40.38 59 35.76 59 31 59 C30.96261719 57.10894531 30.92523438 55.21789062 30.88671875 53.26953125 C30.82105883 50.78383434 30.7546115 48.29815814 30.6875 45.8125 C30.66494141 44.56662109 30.64238281 43.32074219 30.61914062 42.03710938 C30.58369141 40.83505859 30.54824219 39.63300781 30.51171875 38.39453125 C30.47244263 36.73707886 30.47244263 36.73707886 30.43237305 35.04614258 C29.94809874 31.63434667 29.10427542 29.71563827 27 27 C23.63825863 25.74588432 23.63825863 25.74588432 20 26 C17.19626413 27.49197547 17.19626413 27.49197547 15 30 C14.22270736 33.17540136 14.22270736 33.17540136 14.29296875 36.734375 C14.26396484 38.02988281 14.23496094 39.32539063 14.20507812 40.66015625 C14.19868929 42.02343512 14.1928367 43.3867166 14.1875 44.75 C14.16435029 46.12894569 14.13898393 47.50785607 14.11132812 48.88671875 C14.05239835 52.25750166 14.02335226 55.62878288 14 59 C9.38 59 4.76 59 0 59 C0 39.53 0 20.06 0 0 Z " fill="#EB5D11" transform="translate(324,218)"/>
<path d="M0 0 C11.55 0 23.1 0 35 0 C35 3.63 35 7.26 35 11 C28.07 11 21.14 11 14 11 C14 14.63 14 18.26 14 22 C19.94 22 25.88 22 32 22 C32 25.63 32 29.26 32 33 C26.06 33 20.12 33 14 33 C14 36.96 14 40.92 14 45 C20.6 45 27.2 45 34 45 C34 48.63 34 52.26 34 56 C22.78 56 11.56 56 0 56 C0 37.52 0 19.04 0 0 Z " fill="#EB5C10" transform="translate(165,221)"/>
<path d="M0 0 C4.62 0 9.24 0 14 0 C14.03738281 2.13082031 14.07476562 4.26164063 14.11328125 6.45703125 C14.15950257 8.5223208 14.21073366 10.58742953 14.26245117 12.65258789 C14.29569001 14.08704628 14.32372535 15.52163513 14.34643555 16.95629883 C14.38000271 19.01960807 14.43231413 21.08172303 14.48828125 23.14453125 C14.51446533 24.38565674 14.54064941 25.62678223 14.56762695 26.90551758 C14.74455831 29.97273481 14.74455831 29.97273481 16.41088867 31.90356445 C19.34867548 33.93054257 22.58646018 33.53447909 26 33 C28.67431489 31.18836733 28.95920359 30.12238923 30 27 C30.15029988 24.93637009 30.24844448 22.86876085 30.31640625 20.80078125 C30.35830078 19.59228516 30.40019531 18.38378906 30.44335938 17.13867188 C30.48267578 15.87603516 30.52199219 14.61339844 30.5625 13.3125 C30.60568359 12.03826172 30.64886719 10.76402344 30.69335938 9.45117188 C30.79954789 6.30091273 30.90028813 3.1504708 31 0 C35.29 0 39.58 0 44 0 C44 14.85 44 29.7 44 45 C39.71 45 35.42 45 31 45 C30.505 42.525 30.505 42.525 30 40 C28.824375 40.9590625 28.824375 40.9590625 27.625 41.9375 C22.96710508 45.59727458 19.1854454 45.51279316 13.34765625 45.48046875 C8.84687263 44.83449864 6.66853023 43.14530059 3.48828125 40.01953125 C0.0509773 35.35526316 -0.27900695 30.93630198 -0.1953125 25.29296875 C-0.1924826 24.56757401 -0.18965271 23.84217926 -0.18673706 23.09480286 C-0.17559799 20.79219632 -0.15050566 18.48998773 -0.125 16.1875 C-0.11496206 14.62044835 -0.10583763 13.05339057 -0.09765625 11.48632812 C-0.0756793 7.65740022 -0.04119339 3.82876744 0 0 Z " fill="#EB5D10" transform="translate(382,232)"/>
<path d="M0 0 C14.52 0 29.04 0 44 0 C44 3.63 44 7.26 44 11 C39.05 11 34.1 11 29 11 C29 25.85 29 40.7 29 56 C24.38 56 19.76 56 15 56 C15 41.15 15 26.3 15 11 C10.05 11 5.1 11 0 11 C0 7.37 0 3.74 0 0 Z " fill="#EB5D11" transform="translate(209,221)"/>
<path d="M0 0 C3.85953347 2.01309 6.16345313 4.6542507 8.4375 8.3125 C9.80877299 14.86413763 9.63826054 20.37536969 6.25 26.26953125 C4.13181144 29.20189854 2.31178057 30.52809752 -1 32 C-5.9479946 32.77362782 -9.78181333 32.5414163 -14.375 30.5 C-18.92344323 26.1681493 -21.19217019 21.70024238 -21.4375 15.375 C-21.1385807 9.76303118 -19.17659084 6.38777381 -15.5625 2.125 C-11.0253859 -1.35723507 -5.38842765 -1.02430619 0 0 Z " fill="#FEFCFA" transform="translate(42,233)"/>
<path d="M0 0 C2.16015625 0.5 2.16015625 0.5 5.22265625 2.3125 C8.06611158 6.99044263 8.14545804 11.16495126 7.16015625 16.5 C4.66306375 20.28347348 3.0014929 21.22465346 -1.27734375 22.625 C-6.20885133 22.45196465 -7.47180365 21.02842296 -10.83984375 17.5 C-12.29017151 13.14901672 -12.88477311 8.92117779 -11.0390625 4.64453125 C-8.04391876 0.31135079 -4.93217563 -0.39523277 0 0 Z " fill="#FEFBF9" transform="translate(465.83984375,243.5)"/>
</svg>
